<mxfile host="app.diagrams.net" agent="Mozilla/5.0 (Windows NT 10.0; Win64; x64) AppleWebKit/537.36 (KHTML, like Gecko) Chrome/136.0.0.0 Safari/537.36 Edg/136.0.0.0" version="27.0.2">
  <diagram name="Workflow" id="qkewzT2FHuv4y5gZ4FKc">
    <mxGraphModel dx="1555" dy="835" grid="1" gridSize="10" guides="1" tooltips="1" connect="1" arrows="1" fold="1" page="1" pageScale="1" pageWidth="827" pageHeight="1169" math="0" shadow="0">
      <root>
        <mxCell id="0" />
        <mxCell id="1" parent="0" />
        <mxCell id="S3spoL3LsNqL-v52EZiS-2" value="" style="rounded=1;whiteSpace=wrap;html=1;shadow=1;arcSize=4;" vertex="1" parent="1">
          <mxGeometry x="60" y="70" width="530" height="400" as="geometry" />
        </mxCell>
        <mxCell id="S3spoL3LsNqL-v52EZiS-3" value="" style="endArrow=none;html=1;rounded=0;" edge="1" parent="1">
          <mxGeometry width="50" height="50" relative="1" as="geometry">
            <mxPoint x="575" y="110" as="sourcePoint" />
            <mxPoint x="75" y="110" as="targetPoint" />
          </mxGeometry>
        </mxCell>
        <mxCell id="S3spoL3LsNqL-v52EZiS-11" value="" style="group" vertex="1" connectable="0" parent="1">
          <mxGeometry x="60" y="110" width="530" height="50" as="geometry" />
        </mxCell>
        <mxCell id="S3spoL3LsNqL-v52EZiS-8" value="" style="rounded=0;whiteSpace=wrap;html=1;" vertex="1" parent="S3spoL3LsNqL-v52EZiS-11">
          <mxGeometry width="530" height="50" as="geometry" />
        </mxCell>
        <mxCell id="S3spoL3LsNqL-v52EZiS-9" value="--:--" style="text;html=1;align=center;verticalAlign=middle;whiteSpace=wrap;rounded=0;" vertex="1" parent="S3spoL3LsNqL-v52EZiS-11">
          <mxGeometry x="450" y="10" width="60" height="30" as="geometry" />
        </mxCell>
        <mxCell id="S3spoL3LsNqL-v52EZiS-14" value="" style="group;rounded=0;shadow=1;strokeColor=default;dashed=1;dashPattern=1 2;" vertex="1" connectable="0" parent="S3spoL3LsNqL-v52EZiS-11">
          <mxGeometry x="10" y="10" width="40" height="30" as="geometry" />
        </mxCell>
        <mxCell id="S3spoL3LsNqL-v52EZiS-12" value="" style="rounded=1;whiteSpace=wrap;html=1;verticalLabelPosition=bottom;labelBackgroundColor=#ffffff;verticalAlign=top;strokeWidth=2;strokeColor=#0080F0;shadow=0;dashed=0;shape=mxgraph.ios7.icons.looking_glass;aspect=fixed;" vertex="1" parent="S3spoL3LsNqL-v52EZiS-14">
          <mxGeometry x="10" y="5" width="20" height="20" as="geometry" />
        </mxCell>
        <mxCell id="S3spoL3LsNqL-v52EZiS-17" value="" style="group" vertex="1" connectable="0" parent="1">
          <mxGeometry x="760" y="100" width="340" height="340" as="geometry" />
        </mxCell>
        <mxCell id="S3spoL3LsNqL-v52EZiS-15" value="" style="rounded=1;whiteSpace=wrap;html=1;shadow=1;arcSize=4;" vertex="1" parent="S3spoL3LsNqL-v52EZiS-17">
          <mxGeometry width="340" height="340" as="geometry" />
        </mxCell>
        <mxCell id="S3spoL3LsNqL-v52EZiS-16" value="" style="endArrow=none;html=1;rounded=0;" edge="1" parent="S3spoL3LsNqL-v52EZiS-17">
          <mxGeometry width="50" height="50" relative="1" as="geometry">
            <mxPoint x="330.37735849056605" y="34" as="sourcePoint" />
            <mxPoint x="9.622641509433961" y="34" as="targetPoint" />
          </mxGeometry>
        </mxCell>
        <mxCell id="S3spoL3LsNqL-v52EZiS-18" value="" style="endArrow=none;html=1;rounded=0;" edge="1" parent="S3spoL3LsNqL-v52EZiS-17">
          <mxGeometry width="50" height="50" relative="1" as="geometry">
            <mxPoint y="150.65" as="sourcePoint" />
            <mxPoint x="340" y="149.99615384615385" as="targetPoint" />
          </mxGeometry>
        </mxCell>
        <mxCell id="S3spoL3LsNqL-v52EZiS-19" value="Select Ballbar" style="text;html=1;align=center;verticalAlign=middle;whiteSpace=wrap;rounded=0;" vertex="1" parent="S3spoL3LsNqL-v52EZiS-17">
          <mxGeometry x="10" width="90" height="39.23076923076923" as="geometry" />
        </mxCell>
        <mxCell id="S3spoL3LsNqL-v52EZiS-20" value="Paired&amp;nbsp;" style="text;html=1;align=center;verticalAlign=middle;whiteSpace=wrap;rounded=0;" vertex="1" parent="S3spoL3LsNqL-v52EZiS-17">
          <mxGeometry y="39.23076923076923" width="90" height="26.153846153846153" as="geometry" />
        </mxCell>
        <mxCell id="S3spoL3LsNqL-v52EZiS-21" value="" style="endArrow=none;html=1;rounded=0;strokeColor=#808080;" edge="1" parent="S3spoL3LsNqL-v52EZiS-17">
          <mxGeometry width="50" height="50" relative="1" as="geometry">
            <mxPoint x="10" y="65.38461538461539" as="sourcePoint" />
            <mxPoint x="330" y="65.38461538461539" as="targetPoint" />
          </mxGeometry>
        </mxCell>
        <mxCell id="S3spoL3LsNqL-v52EZiS-22" value="New" style="text;html=1;align=center;verticalAlign=middle;whiteSpace=wrap;rounded=0;" vertex="1" parent="S3spoL3LsNqL-v52EZiS-17">
          <mxGeometry y="150" width="90" height="26.153846153846153" as="geometry" />
        </mxCell>
        <mxCell id="S3spoL3LsNqL-v52EZiS-23" value="" style="endArrow=none;html=1;rounded=0;strokeColor=#808080;" edge="1" parent="S3spoL3LsNqL-v52EZiS-17">
          <mxGeometry width="50" height="50" relative="1" as="geometry">
            <mxPoint x="10" y="176.15384615384616" as="sourcePoint" />
            <mxPoint x="330" y="176.15384615384616" as="targetPoint" />
          </mxGeometry>
        </mxCell>
        <mxCell id="S3spoL3LsNqL-v52EZiS-24" value="" style="rounded=1;whiteSpace=wrap;html=1;" vertex="1" parent="S3spoL3LsNqL-v52EZiS-17">
          <mxGeometry x="20" y="80" width="70" height="50" as="geometry" />
        </mxCell>
        <mxCell id="S3spoL3LsNqL-v52EZiS-25" value="" style="rounded=1;whiteSpace=wrap;html=1;" vertex="1" parent="S3spoL3LsNqL-v52EZiS-17">
          <mxGeometry x="110" y="80" width="70" height="50" as="geometry" />
        </mxCell>
        <mxCell id="S3spoL3LsNqL-v52EZiS-26" value="" style="rounded=1;whiteSpace=wrap;html=1;" vertex="1" parent="S3spoL3LsNqL-v52EZiS-17">
          <mxGeometry x="20" y="190" width="70" height="50" as="geometry" />
        </mxCell>
        <mxCell id="S3spoL3LsNqL-v52EZiS-27" value="" style="rounded=1;whiteSpace=wrap;html=1;" vertex="1" parent="S3spoL3LsNqL-v52EZiS-17">
          <mxGeometry x="110" y="190" width="70" height="50" as="geometry" />
        </mxCell>
        <mxCell id="S3spoL3LsNqL-v52EZiS-30" value="" style="group" vertex="1" connectable="0" parent="S3spoL3LsNqL-v52EZiS-17">
          <mxGeometry x="250" y="290" width="80" height="40" as="geometry" />
        </mxCell>
        <mxCell id="S3spoL3LsNqL-v52EZiS-28" value="" style="rounded=1;whiteSpace=wrap;html=1;" vertex="1" parent="S3spoL3LsNqL-v52EZiS-30">
          <mxGeometry width="80" height="40" as="geometry" />
        </mxCell>
        <mxCell id="S3spoL3LsNqL-v52EZiS-29" value="OK" style="text;html=1;align=center;verticalAlign=middle;whiteSpace=wrap;rounded=0;" vertex="1" parent="S3spoL3LsNqL-v52EZiS-30">
          <mxGeometry x="24" y="8" width="32" height="24" as="geometry" />
        </mxCell>
        <mxCell id="S3spoL3LsNqL-v52EZiS-31" value="" style="group" vertex="1" connectable="0" parent="S3spoL3LsNqL-v52EZiS-17">
          <mxGeometry x="160" y="290" width="80" height="40" as="geometry" />
        </mxCell>
        <mxCell id="S3spoL3LsNqL-v52EZiS-32" value="" style="rounded=1;whiteSpace=wrap;html=1;" vertex="1" parent="S3spoL3LsNqL-v52EZiS-31">
          <mxGeometry width="80" height="40" as="geometry" />
        </mxCell>
        <mxCell id="S3spoL3LsNqL-v52EZiS-33" value="Cancel" style="text;html=1;align=center;verticalAlign=middle;whiteSpace=wrap;rounded=0;" vertex="1" parent="S3spoL3LsNqL-v52EZiS-31">
          <mxGeometry x="24" y="8" width="32" height="24" as="geometry" />
        </mxCell>
        <mxCell id="S3spoL3LsNqL-v52EZiS-34" value="" style="shape=flexArrow;endArrow=classic;html=1;rounded=0;" edge="1" parent="1">
          <mxGeometry width="50" height="50" relative="1" as="geometry">
            <mxPoint x="640" y="250" as="sourcePoint" />
            <mxPoint x="730" y="250" as="targetPoint" />
          </mxGeometry>
        </mxCell>
        <mxCell id="S3spoL3LsNqL-v52EZiS-35" value="" style="rounded=1;whiteSpace=wrap;html=1;shadow=1;arcSize=4;" vertex="1" parent="1">
          <mxGeometry x="690" y="620" width="530" height="400" as="geometry" />
        </mxCell>
        <mxCell id="S3spoL3LsNqL-v52EZiS-36" value="" style="endArrow=none;html=1;rounded=0;" edge="1" parent="1">
          <mxGeometry width="50" height="50" relative="1" as="geometry">
            <mxPoint x="1205" y="660" as="sourcePoint" />
            <mxPoint x="705" y="660" as="targetPoint" />
          </mxGeometry>
        </mxCell>
        <mxCell id="S3spoL3LsNqL-v52EZiS-37" value="" style="group" vertex="1" connectable="0" parent="1">
          <mxGeometry x="690" y="660" width="530" height="50" as="geometry" />
        </mxCell>
        <mxCell id="S3spoL3LsNqL-v52EZiS-38" value="" style="rounded=0;whiteSpace=wrap;html=1;" vertex="1" parent="S3spoL3LsNqL-v52EZiS-37">
          <mxGeometry width="530" height="50" as="geometry" />
        </mxCell>
        <mxCell id="S3spoL3LsNqL-v52EZiS-39" value="100.00" style="text;html=1;align=center;verticalAlign=middle;whiteSpace=wrap;rounded=0;" vertex="1" parent="S3spoL3LsNqL-v52EZiS-37">
          <mxGeometry x="450" y="10" width="60" height="30" as="geometry" />
        </mxCell>
        <mxCell id="S3spoL3LsNqL-v52EZiS-43" value="2NQY32" style="text;html=1;align=center;verticalAlign=middle;whiteSpace=wrap;rounded=0;" vertex="1" parent="S3spoL3LsNqL-v52EZiS-37">
          <mxGeometry x="10" y="10" width="60" height="30" as="geometry" />
        </mxCell>
        <mxCell id="S3spoL3LsNqL-v52EZiS-42" value="" style="shape=flexArrow;endArrow=classic;html=1;rounded=0;" edge="1" parent="1">
          <mxGeometry width="50" height="50" relative="1" as="geometry">
            <mxPoint x="910" y="480" as="sourcePoint" />
            <mxPoint x="910" y="580" as="targetPoint" />
          </mxGeometry>
        </mxCell>
      </root>
    </mxGraphModel>
  </diagram>
</mxfile>
